<?xml version="1.0" encoding="UTF-8"?>
<!DOCTYPE svg PUBLIC "-//W3C//DTD SVG 1.1//EN" "http://www.w3.org/Graphics/SVG/1.1/DTD/svg11.dtd">
<!-- Creator: CorelDRAW -->
<svg xmlns="http://www.w3.org/2000/svg" xml:space="preserve" width="105.833mm" height="105.833mm" version="1.1" style="shape-rendering:geometricPrecision; text-rendering:geometricPrecision; image-rendering:optimizeQuality; fill-rule:evenodd; clip-rule:evenodd"
viewBox="0 0 10583.32 10583.32"
 xmlns:xlink="http://www.w3.org/1999/xlink"
 xmlns:xodm="http://www.corel.com/coreldraw/odm/2003">
 <defs>
  <style type="text/css">
   <![CDATA[
    .fil0 {fill:#252525}
    .fil1 {fill:#E4E4E4}
    .fil4 {fill:#1B3CE0;fill-rule:nonzero}
    .fil2 {fill:#252525;fill-rule:nonzero}
    .fil3 {fill:#E4E4E4;fill-rule:nonzero}
   ]]>
  </style>
 </defs>
 <g id="Layer_x0020_1">
  <metadata id="CorelCorpID_0Corel-Layer"/>
  <g id="_2206944098960">
   <path class="fil0" d="M7727.81 3575.67c303.34,717.69 633.03,1436.18 1039.13,2127.32 413.22,703.27 904.18,1378.07 1419.2,2055.31 -288.04,53.99 -350.56,307.8 -136.72,562.74 -163.97,30.74 -327.04,61.31 -490.12,91.87 -27.01,-31.51 -54.93,-63.73 -82.19,-95.89 -57.54,-67.9 -167.75,-111.8 -243.97,-97.51 0,0 0,0 0,0 -77.11,14.45 -92.57,81.77 -34.32,149.67 27.44,32 55.18,64.38 82.19,95.9 -117,21.93 -233.1,43.69 -349.21,65.45 -26.99,-31.51 -54.15,-63.79 -82.18,-95.89 -58.57,-67.65 -168.63,-111.63 -244.85,-97.34 0,0 0,0 0,0 -77.11,14.45 -92.01,81.86 -33.45,149.5 28.04,32.1 56.07,64.22 83.08,95.73 -116.11,21.77 -233.1,43.7 -348.32,65.29 -27.88,-31.35 -55.92,-63.46 -83.96,-95.56 -58.55,-67.65 -169.52,-111.46 -245.74,-97.18 0,0 0,0 0,0 -76.22,14.29 -91.12,81.7 -31.67,149.18 28.04,32.1 56.07,64.21 83.96,95.56 -116.99,21.93 -233.09,43.69 -349.2,65.46 -27.88,-31.35 -56.81,-63.3 -84.85,-95.4 -59.43,-67.48 -169.51,-111.46 -246.62,-97.01 0,0 0,0 0,0 -76.22,14.29 -91.11,81.69 -30.79,149.01 28.04,32.1 56.08,64.21 83.97,95.56 -116.11,21.77 -232.21,43.53 -348.32,65.29 -27.88,-31.35 -56.81,-63.3 -84.85,-95.39 -60.32,-67.32 -171.29,-111.13 -248.4,-96.68 0,0 0,0 0,0 -76.22,14.29 -90.21,81.52 -29.89,148.84 28.92,31.93 57.84,63.88 85.74,95.23 -117,21.93 -233.1,43.69 -348.32,65.29 -28.77,-31.18 -57.7,-63.13 -86.63,-95.06 -60.32,-67.32 -172.17,-110.97 -249.27,-96.52 0,0 0,0 0,0 -76.23,14.29 -90.23,81.53 -29.02,148.68 28.93,31.93 57.86,63.88 86.63,95.07 -117,21.93 -233.09,43.69 -349.19,65.45 -28.79,-31.18 -57.72,-63.13 -86.64,-95.06 -61.21,-67.15 -173.05,-110.8 -250.16,-96.35 0,0 0,0 0,0 -76.22,14.29 -89.35,81.36 -27.25,148.35 28.93,31.93 57.86,63.88 86.63,95.06 -116.11,21.77 -233.09,43.69 -348.3,65.29 -28.79,-31.18 -58.36,-63.2 -87.53,-94.9 -61.85,-67.2 -174.83,-110.46 -251.05,-96.18 0,0 0,0 0,0 -77.11,14.46 -90.35,81.67 -28.13,148.52 29.67,31.88 58.74,63.71 88.4,94.73 -166.62,31.23 -332.36,62.29 -498.98,93.53 -232.45,-251.45 -651.19,-415.05 -937.47,-361.39 -558.44,-669.1 -1084.3,-1335.04 -1517.59,-2036.87 -423.39,-685.82 -744.64,-1407.97 -1032.02,-2128.65 1135.34,-212.81 2272.45,-425.96 3407.79,-638.77 1136.23,-212.98 2273.34,-426.13 3410.45,-639.28z"/>
   <path class="fil1" d="M843.08 2262.28c164.85,-30.9 329.71,-61.8 494.54,-92.7 5.88,36.27 9.94,72.88 14.99,109.3 10.64,76.61 81.77,127.91 158.88,113.46 0,0 0,0 0,0 76.22,-14.29 130.95,-89.13 120.3,-165.79 -5.04,-36.39 -9.98,-72.87 -15.86,-109.14 116.09,-21.76 232.2,-43.52 349.19,-65.45 4.99,36.43 10,72.86 14.99,109.3 10.69,76.62 82.66,127.74 158.88,113.45 0,0 0,0 0,0 77.11,-14.45 130.1,-89 119.41,-165.62 -5.87,-36.26 -9.98,-72.86 -15.87,-109.13 115.23,-21.6 232.21,-43.53 348.31,-65.29 5.88,36.27 10.89,72.7 16.77,108.97 10.68,76.62 83.54,127.57 159.76,113.29 0,0 0,0 0,0 76.22,-14.29 129.22,-88.84 117.64,-165.29 -4.99,-36.44 -10.87,-72.7 -16.75,-108.97 116.98,-21.93 233.09,-43.69 349.19,-65.45 6.77,36.1 11.76,72.53 17.66,108.79 11.57,76.46 83.54,127.58 160.65,113.13 0,0 0,0 0,0 77.11,-14.45 129.21,-88.84 116.75,-165.12 -5.88,-36.27 -10.88,-72.7 -17.65,-108.8 116.1,-21.77 232.21,-43.53 349.2,-65.46 5.88,36.27 11.76,72.54 17.65,108.8 12.47,76.29 85.31,127.25 162.42,112.79 0,0 0,0 0,0 76.22,-14.28 128.34,-88.67 115.88,-164.96 -6.77,-36.1 -11.78,-72.53 -18.54,-108.63 116.1,-21.76 233.1,-43.69 349.2,-65.45 6.77,36.1 12.65,72.36 18.53,108.63 12.47,76.29 86.21,127.08 162.43,112.79 0,0 0,0 0,0 76.22,-14.28 128.34,-88.67 115.86,-164.95 -6.77,-36.1 -12.65,-72.37 -19.41,-108.47 116.1,-21.77 232.21,-43.53 348.31,-65.29 7.66,35.93 13.54,72.2 19.42,108.47 13.35,76.12 87.09,126.91 164.2,112.45 0,0 0,0 0,0 76.22,-14.28 127.46,-88.5 114.09,-164.62 -6.77,-36.1 -12.65,-72.37 -19.41,-108.47 115.21,-21.59 232.21,-43.52 348.31,-65.29 6.77,36.1 12.93,72.32 19.42,108.47 13.64,76.05 88.87,126.58 165.98,112.13 0,0 0,0 0,0 76.22,-14.29 127.43,-88.51 113.2,-164.46 -6.77,-36.1 -12.65,-72.37 -20.3,-108.3 164.85,-30.9 328.81,-61.64 494.55,-92.71 55.34,285.44 339.37,474.31 627.41,420.32 80.17,329.82 164.9,659.18 265.2,984.06 100.54,325.65 216.77,647.5 339.35,968.6 -1137.11,213.15 -2274.22,426.3 -3410.45,639.28 -1135.34,212.81 -2272.45,425.96 -3407.79,638.77 -111.94,-323.09 -218.03,-646.88 -303.91,-975.25 -85.7,-327.69 -149.56,-660.88 -208.47,-994.69 286.26,-53.66 484.38,-332.9 445.89,-621.5z"/>
   <path class="fil2" d="M2373.16 4013.45c-157.87,-347.95 -301.59,-698.56 -433.01,-1052.24 -105.47,19.77 -210.94,39.54 -316.41,59.31 31.29,372.45 75.72,741.67 132.56,1108.56 67.36,-12.63 133.83,-25.08 200.3,-37.54 -11.45,-56.25 -22.9,-112.48 -34.51,-169.47 61.15,-11.46 122.31,-22.92 183.47,-34.39 22.22,55 45.2,109.07 68.19,163.15 66.47,-12.46 132.05,-24.75 199.41,-37.38zm-480.91 -255.48c-31.66,-193.35 -61.67,-387.78 -88.15,-582.88 11.51,-2.16 23.03,-4.32 34.56,-6.48 64.59,187.96 131.83,375.4 202.48,561.45 -49.63,9.31 -99.27,18.61 -148.89,27.91zm733.89 -925.35c-66.47,12.46 -132.07,24.76 -196.76,36.88 36.7,308.39 83.01,614.19 138.19,918.35 -11.51,2.15 -23.04,4.31 -34.56,6.47 -115.45,-292.85 -222.92,-587.19 -319.88,-884.28 -66.48,12.46 -132.07,24.75 -197.65,37.05 130.55,353.85 274.25,704.46 430.37,1052.74 105.46,-19.77 211.82,-39.71 318.18,-59.64 -57.73,-366.73 -103.96,-735.61 -137.89,-1107.57zm829.19 977.99c-159.66,-347.62 -306.03,-697.73 -440.12,-1050.92 -106.35,19.94 -211.82,39.71 -317.29,59.48 35.73,371.62 82.82,740.34 142.32,1106.73 65.59,-12.29 132.06,-24.75 198.53,-37.21 -11.46,-56.24 -23.81,-112.31 -35.41,-169.3 61.16,-11.46 122.32,-22.92 183.46,-34.39 23.13,54.83 46.11,108.9 69.97,162.82 65.6,-12.3 132.07,-24.75 198.54,-37.21zm-482.7 -255.15c-33.42,-193.03 -64.32,-387.28 -91.69,-582.22 11.52,-2.16 22.15,-4.15 33.67,-6.31 66.37,187.62 136.28,374.57 207.81,560.45 -49.63,9.31 -100.15,18.78 -149.79,28.08zm519.03 248.34c62.05,-11.64 124.08,-23.26 186.13,-34.89 -110.03,-356.92 -207.64,-716.17 -293.87,-1078.33 -61.16,11.47 -123.19,23.09 -184.35,34.56 86.23,362.15 182.95,721.57 292.09,1078.66zm241.96 -45.36c154.22,-28.91 308.43,-57.81 462.65,-86.72 -19.39,-59.42 -37.9,-119.01 -56.42,-178.59 -91.32,21.79 -182.8,42.82 -274.26,63.87 -88.68,-301.76 -170.4,-605.61 -242.38,-911.27 -62.03,11.62 -123.19,23.09 -183.46,34.39 86.23,362.15 183.85,721.4 293.87,1078.32zm1106.09 -207.33c-161.42,-347.29 -311.33,-696.73 -449.84,-1049.09 -106.36,19.94 -211.83,39.71 -316.42,59.31 38.38,371.13 89.01,739.18 151.18,1105.07 65.58,-12.29 132.05,-24.75 198.52,-37.21 -12.33,-56.08 -24.68,-112.14 -35.39,-169.3 61.14,-11.46 122.3,-22.92 183.46,-34.39 23.11,54.84 46.98,108.74 70.86,162.66 65.58,-12.3 132.05,-24.76 197.63,-37.05zm-485.34 -254.65c-35.2,-192.69 -67.88,-386.62 -97.02,-581.22 10.64,-2 22.16,-4.16 33.67,-6.31 68.14,187.29 139.81,373.9 214.01,559.29 -50.51,9.47 -101.03,18.94 -150.66,28.24zm523.59 248.25c129.41,-24.25 258.73,-48.88 388.06,-73.51 124,-23.61 165.98,-93.39 127.94,-213.15 -33.6,-105.78 -65.36,-211.95 -96.34,-318.23 -10.12,-34.68 -36.23,-90.5 -86.06,-111.54 -0.28,-1.49 -0.56,-3 -0.98,-5.26 33.36,-37.38 24.53,-103.46 15.5,-137.57 -12.79,-48.19 -25.29,-96.47 -37.24,-144.82 -29.79,-120.53 -105.01,-168.69 -228.21,-145.6 -129.39,24.26 -257.91,48.35 -386.43,72.44 89.78,361.49 191.09,720.82 303.76,1077.24zm126.04 -213.56c-36,-118.58 -71.99,-237.16 -106.2,-356.08 67.36,-12.62 134.58,-26.01 202.67,-39.55 35.25,119.51 70.5,239 107.36,357.42 -67.36,12.63 -135.6,25.42 -203.83,38.21zm-155.67 -536.75c-15.84,-60.08 -31.7,-120.17 -46.8,-181.17 67.35,-12.62 135.6,-25.41 202.96,-38.04 15.11,60.99 30.95,121.09 46.81,181.17 -67.36,12.62 -134.72,25.25 -202.97,38.04zm658.77 631.61c154.21,-28.91 309.31,-57.98 463.53,-86.89 -20.28,-59.24 -39.67,-118.68 -59.08,-178.09 -91.32,21.79 -181.91,42.66 -273.37,63.71 -92.22,-301.1 -178.37,-604.12 -254.79,-908.95 -61.15,11.46 -122.31,22.93 -183.47,34.39 91.56,361.16 194.5,719.41 307.18,1075.83zm510.5 -95.69c162.19,-30.4 324.38,-60.8 487.46,-91.37 -20.28,-59.25 -39.68,-118.68 -59.07,-178.1 -101.04,18.94 -202.07,37.88 -302.23,56.65 -38.46,-122 -76.19,-244.93 -113.9,-367.86 101.73,-15.19 203.48,-30.36 305.22,-45.54 -16.59,-59.17 -34.21,-118.92 -50.06,-179 -101.05,18.94 -201.19,37.71 -301.35,56.49 -16.73,-59.92 -32.59,-120.01 -48.57,-180.84 100.15,-18.77 200.3,-37.54 301.33,-56.48 -16.59,-59.17 -31.55,-119.41 -46.51,-179.66 -161.31,30.24 -322.61,60.47 -483.92,90.71 93.32,360.82 197.15,718.91 311.6,1075z"/>
   <path class="fil3" d="M4217.29 7596.58c225.96,314.78 517.73,432.3 864.27,367.34 189.66,-35.55 380.21,-71.26 570.77,-106.99 346.54,-64.95 398.96,-247.18 176.23,-562.37 -219.31,-310.37 -424.8,-625.38 -616.53,-944.67 -189.78,-316.07 -368.03,-636.76 -529.06,-962.63 -159.74,-323.26 -399.1,-455.31 -749.19,-389.69 -192.33,36.05 -384.65,72.1 -576.09,107.99 -349.2,65.45 -456.37,262.46 -296.63,585.72 161.04,325.87 339.83,646.62 531.73,962.13 194.05,319.03 402.24,633.57 624.5,943.17zm519.37 -97.35c-217.33,-312.68 -427.99,-624.92 -620.97,-943.84 -191.17,-315.93 -364.77,-639.24 -531.72,-962.13 191.45,-35.89 383.77,-71.94 576.1,-107.99 166.94,322.9 339.3,646.56 529.95,962.47 192.61,319.13 402.74,631.33 619.17,944.17 -191.43,35.88 -381.98,71.6 -572.53,107.32zm1589.26 231.44c177.24,-33.22 355.4,-66.61 532.65,-99.84 -294.96,-389.19 -581.34,-777.4 -839.71,-1176.08 -255.38,-394.08 -484.48,-798.16 -704.25,-1202.24 4.42,-0.83 7.97,-1.49 13.28,-2.49 275.62,393.61 563.3,787.04 873.55,1170.51 314.28,388.49 656.41,765.96 1007.22,1144.68 274.76,-51.5 550.39,-103.17 826.02,-154.83 -335.29,-467.27 -656.93,-933.93 -942.07,-1413.77 -281.82,-474.26 -524.35,-961.97 -753.42,-1449.92 -179.93,33.73 -359.84,67.45 -538.88,101.01 212.16,431.97 436.28,863.59 691.16,1284.09 257.85,425.41 545.46,839.68 843.46,1254.77 -5.31,1 -10.64,2 -15.06,2.83 -358.27,-403.8 -704.2,-806.73 -1022.5,-1221.21 -314.07,-408.98 -599.52,-829.53 -871.08,-1250.37 -271.2,50.83 -542.4,101.67 -812.72,152.34 227.31,488.28 470.55,976.32 755.2,1449.58 288.52,479.72 615.64,944.84 957.15,1410.94z"/>
   <path class="fil4" d="M4234.43 7404.22c-51.54,-59.63 -118.43,-103.08 -200.04,-127.54 -57.38,-17.2 -100.38,-6.88 -144.68,1.42 -42.55,7.98 -82.61,19.21 -120.91,30.45 -100.81,29.6 -201.1,57.91 -301.02,87.57 -63.44,18.84 -129.84,36.66 -195.56,53.01 -22.8,5.67 -23.28,13.84 -3.08,32.5 19.73,18.22 41.16,32.39 67.75,43.33 37.02,15.26 73.7,21.48 108.79,22.43 15.62,0.43 23.22,1.87 22.55,17.57 -5.61,131.81 2.22,266.58 17.61,402.26 1.48,12.95 -1.68,22.5 -7.8,31.82 -16.02,24.4 -31.04,49.85 -36.39,80 -5.79,32.66 7.76,50.6 54.09,73.16 18.27,8.91 21.2,16.29 23.51,27.51 16.91,81.68 35.52,164.6 62,247.59 15.71,49.2 20.89,57.59 101.9,68.88 0.89,-0.17 0.74,0.33 1.92,0.41 61.26,4.58 88.73,-13.58 85.44,-58.06 -1.47,-20 -4.06,-40.48 -7.86,-61.57 -19.85,-109.94 -36.58,-222.02 -53.31,-333.3 -1.82,-12.14 1.94,-21.39 10.27,-28.4 46.36,-39.04 92.63,-76.41 136.1,-115.8 121.2,-109.79 242.8,-219.61 341.6,-345.84 22.59,-28.85 42.53,-58.11 51.24,-93.67 4.29,-17.48 3.41,-35.67 -14.12,-55.73 0,0 0,0 0,0zm-553.56 350.51c-9.34,-10.69 -7.32,-16.49 -7.91,-22.63 -5.77,-61.95 -11.54,-124.65 -16.67,-186.82 -0.64,-7.62 -0.92,-14.8 10.62,-16.79 86.22,-14.79 167.98,-33.92 251.46,-53.36 1.9,-0.43 3.69,0.09 11.81,-0.65 -79.61,98.98 -166.66,187.7 -249.31,280.25 0,0 0,0 0,0zm974.55 167.63c96.17,-69.39 149.59,-164.01 183.43,-269.46 21.16,-65.97 34.78,-134.98 19.55,-213.84 -14.82,-76.64 -73.97,-138.29 -169.61,-185.4 -77.18,-38.02 -154.42,-55.43 -226.4,-47.87 -135.83,14.27 -215.32,77.42 -256.91,171.16 -5.5,12.38 -6,27.44 -4.94,42.18 3.42,48.29 62.38,88.39 121.37,84.67 9.92,-0.64 17.7,-3.84 13.1,-13.36 -8.87,-18.34 -4.27,-33.34 2.18,-47.11 38.75,-82.66 113.96,-136.05 227.72,-155.55 31.11,-5.33 45.34,-0.53 69.75,34.4 29.48,42.17 38.14,81.59 32.45,119.25 -16.83,111.33 -68.52,205.53 -140.26,289.41 -2.02,2.36 -3.43,6.09 -10.21,4.25 -1.45,-2.84 -3.43,-5.49 -4.34,-8.54 -18.57,-61.84 -39.48,-124.17 -49.43,-185.33 -2.1,-12.86 -8.49,-19.93 -24.99,-25.68 -59.06,-20.56 -98.9,-8.7 -101.3,32.23 -3.3,55.86 5.04,115.03 16.03,173.7 2.26,12.05 1.89,20.47 -6.57,28.48 -17.25,16.27 -19.12,36.58 10.06,63.5 18.5,17.07 28.38,35.96 33.43,56.01 16.31,64.68 41.66,129.2 71.32,194.47 21.84,48.05 44.63,96.8 84.73,143.7 9.23,10.78 18.52,20.81 35.03,25.35 47.33,13.06 86.35,-7.64 81.32,-40.94 -6.28,-41.64 -20.36,-84.14 -36.2,-129.44 12.51,3.11 15.9,8.24 21.59,12.3 110.83,79.18 231.94,145.63 355.67,208.91 58.9,30.14 121.38,50.57 181.95,55.4 99.6,7.95 151.14,-14.4 160.09,-95.4 1.6,-14.38 -5.48,-29.79 -15.09,-46.21 -9.29,-15.86 -23.64,-22.41 -36.45,-13.4 -18.79,13.25 -44.64,12.66 -77.3,3.6 -196.68,-54.58 -378.39,-150.52 -556.04,-249.98 -15.05,-8.43 -11.25,-11.11 -4.73,-15.46 0,0 0,0 0,0zm632.54 -717.18c-73.94,-27.4 -145.08,-39.75 -214.54,-38.41 -13.72,0.26 -26.1,-0.11 -42.1,-9.23 -23.03,-13.15 -48.46,-19.71 -71.78,-20.81 -49.8,-2.33 -65.54,8.08 -70.46,45.13 -1.55,11.67 -1.25,24.47 -1.2,37.6 0.43,189.95 42.64,386.96 122.03,587.41 21.64,54.63 50.51,108.98 93.87,163.01 50,62.34 102.03,89.02 182.74,98.86 52.6,6.41 92.43,-2.01 127.73,-18.49 48.21,-22.5 73.15,-60.92 90.85,-102.67 55.45,-130.77 59.33,-278.1 20.33,-439.73 -14.37,-59.55 -36.12,-119.78 -77.04,-180.95 -36.8,-55.02 -90.32,-95.16 -160.43,-121.72 0,0 0,0 0,0zm61.18 360.62c31.01,131.21 37.28,254.89 -3.3,364.16 -7.59,20.41 -17.92,38.91 -30.73,56.36 -8.38,11.44 -17.17,7.2 -28.7,-6.31 -31.98,-37.48 -51.11,-76 -67.44,-115.02 -53.44,-127.71 -81.24,-252.53 -107.62,-378.39 -16.95,-80.87 -29.56,-162.59 -44.78,-243.81 -2.82,-15.06 3.26,-17.01 19.16,-15.28 65.56,7.12 111.4,42.57 150.25,87.05 7.88,9.04 15.56,19.19 23.04,29.93 51.52,73.98 73.64,148.12 90.12,221.31 0,0 0,0 0,0zm727.93 -766.21c-1.92,-0.41 -4.84,-1.54 -6.76,-1.84 -58.58,-9.35 -108.47,-5.5 -144.14,23.91 -123.25,101.56 -256.61,193.25 -401.61,275.34 -39.94,22.61 -86.38,38.38 -136.55,49.71 -9.67,2.19 -20.25,4.61 -17.24,15.7 2.83,10.37 14.78,14.03 25.5,18.58 26.14,11.11 51.46,19.53 78.13,20.38 37,1.21 72.46,-0.1 107.4,-4.57 160.37,-20.47 285.13,-79.74 394.53,-156.46 5.73,-4.01 8.94,-11.03 22.93,-9.75 -4.12,374.42 16.54,748.88 -21.18,1100.8 -27.6,-64.11 -44.41,-126.32 -60.15,-188.79 -34.29,-135.99 -59.96,-270.51 -92.92,-407.6 -8.58,-35.72 -16.79,-71.69 -35.93,-108.49 -6.68,-12.85 -15.55,-24.38 -31.73,-32.19 -45.33,-21.9 -89.06,-29.61 -127.39,-18.94 -13.12,3.63 -22.5,12.86 -11.6,26.3 9.37,11.55 9.69,20.05 10.08,29.26 7.77,190.86 28.58,383.99 88.01,582.12 23.69,78.99 51,158.1 103.24,237.54 45.26,68.85 81.72,87.96 172.03,95.42 4.73,0.39 7.52,1.01 11.2,1.02 74.31,0.14 122.7,-20.89 141.13,-69.28 22.77,-59.76 28.24,-125.35 34.7,-191.77 23.31,-239.63 18.98,-490.44 18.52,-742.99 -0.26,-142.79 5.9,-285.92 -2.29,-433.17 -3.81,-68.48 -26.81,-89.17 -117.91,-110.24 0,0 0,0 0,0zm826.54 332.39c-163.48,23.63 -308.84,69.85 -428.2,143.31 -44.32,27.27 -80.96,57.95 -101.3,100.73 -21.11,44.37 35.74,112.48 109.31,132.85 20.27,5.62 43.38,-3.47 36.28,-16.91 -7.1,-13.46 1.03,-18.31 7.44,-23.98 47.09,-41.71 108.28,-72.8 170.17,-100.39 19.4,-8.65 40.09,-16.08 60.52,-24.58 -0.36,7.85 -5.05,11.95 -9.88,15.86 -58.87,47.72 -115.89,96.43 -177.89,142.34 -54.8,40.58 -94.8,91.6 -168.43,119.53 -47.98,18.2 -73.59,57.43 -96.82,95.21 -11.92,19.4 -5.11,38.65 19.81,61.67 60.51,55.92 149.48,92.44 224.41,91.05 49.4,-0.91 93.82,-8.62 136.73,-19.39 153.36,-38.47 295.23,-89.37 432.76,-143.39 36.77,-14.44 73.54,-29.19 100.29,-52.29 13.5,-11.67 21.58,-24.9 6.89,-46.43 -29.57,-43.34 -71.74,-79.19 -128.59,-103.56 -18.95,-8.12 -32.49,-7.92 -45.39,-2.39 -157.78,67.72 -321.66,129.07 -489.92,186.01 -17.21,5.82 -34.18,13.42 -55.73,15.9 1.06,-18.87 9.49,-35.81 22.52,-46.25 150.49,-120.62 309.99,-234.52 481.35,-339.33 28.63,-17.51 57.97,-34.49 86.44,-52.79 10.82,-6.94 15.18,-16.03 6.02,-31.48 -37.77,-63.69 -126.31,-111 -198.79,-101.3 0,0 0,0 0,0zm242.19 -313.19c-12.38,-17.14 -26.52,-34 -44.71,-47.68 -44.79,-33.66 -96.64,-65.18 -158.28,-46.61 -136.34,41.09 -264.85,89.48 -385.3,146.96 -91.74,43.78 -178.38,91.59 -250.4,152.03 -19.92,16.71 -37.87,34.73 -47.98,57.25 -4.78,10.64 -6.69,21.34 4.85,35.68 24.34,30.29 57.82,52.52 99.43,65.44 17.78,5.51 52.16,0.47 52.14,-10.57 -0.02,-18.53 15.71,-23.93 28.9,-31.87 122,-73.44 258.5,-133.69 402.46,-187.54 6.07,-2.27 10.82,-5.92 21.27,-3.99 2.58,8.86 -1.95,12.97 -4,17.88 -10.59,25.46 -7.12,34.71 24.25,60.85 12.1,10.06 26.46,17.27 40.34,24.35 19.58,9.99 31.98,8.83 39.7,-3.55 19.8,-31.68 40.61,-62.81 63.34,-92.83 29.48,-38.92 52.18,-83.88 111.34,-101.05 16.53,-4.79 15.79,-18.53 2.65,-34.75 0,0 0,0 0,0zm363.66 -252.66c-97.57,-40.88 -179.51,-47.3 -222.11,19.06 -22.71,35.39 -41.84,71.98 -52.45,111.8 -71.23,267.44 -62.08,552.82 24.18,853.32 16.79,58.5 41.68,117.76 79.88,176.53 15.92,24.5 36.41,46.59 72.21,57.3 40.97,12.27 79.52,18.15 116.23,13.25 49.2,-6.55 79.37,-27.95 98.01,-59.64 32.83,-55.8 57.75,-116.1 80.71,-176.27 32.39,-84.87 71.33,-167.53 93.08,-257.2 5.15,-21.23 9.03,-43.77 7.52,-67.57 -0.83,-13.1 -9.33,-21.03 -26.45,-28.53 -53.81,-23.56 -95.07,-19.98 -114.39,11.32 -23.59,38.23 -38.77,80.6 -52.99,123.59 -34.37,103.89 -66.65,209.77 -112.09,307.48 -2.94,6.34 -4.97,12.61 -17.41,19.62 -111.27,-334.12 -142.32,-646.68 -50.18,-933.29 8.78,7.68 7.95,14.11 8.53,20.97 3.84,46.05 4.66,91.69 8.24,137.02 2.42,30.62 3.78,61.61 12.91,93.32 9.17,31.8 27.23,46.89 73.51,59.4 38.75,10.47 65.89,8.68 75.21,-14.88 29.26,-73.95 48.21,-151.42 48.48,-235.6 0.09,-26.39 -3.87,-53 -9.61,-80.73 -13.5,-65.18 -59.32,-115.77 -141.02,-150.27 0,0 0,0 0,0zm1087.76 -168.09c-83.55,-59.06 -168.78,-78.15 -252.79,-66.27 -84.88,12.01 -156.32,42.87 -225.26,75.71 -25.37,12.07 -48.47,20.93 -87.98,10.25 -52.27,-14.13 -90.78,-4.04 -102.51,35.56 -5.12,17.26 -14.43,32.87 -20.05,49.69 -4.35,13.05 -13.28,22.51 -26.51,29.89 -78.94,44.12 -152.31,92.54 -223.91,141.6 -30,20.57 -60.05,40.47 -84.18,64.82 -17.51,17.68 -12.58,29.28 18.63,45.55 64.34,33.53 122.28,40.33 173.69,21.16 28.33,-10.56 56.4,-22.24 83.62,-33.57 37.45,-15.58 73.26,-30.08 114.11,-47.09 -0.08,9.37 0.92,15.39 1.29,21.56 6.56,113.97 17.83,227.85 35.82,342.81 28.28,180.73 62.36,361.17 115.62,543.48 5.59,19.15 12.1,38.92 23.83,58.58 8.3,13.94 18.62,26.31 39.85,31.45 87.35,21.19 153.43,-12.43 146.63,-74.19 -1.01,-9.16 -1.66,-18.39 -3.3,-27.4 -58.9,-323.69 -97.1,-645.88 -135.51,-972.57 -1.7,-14.53 4.17,-22.27 18.53,-28.38 109.66,-46.69 221.29,-92.06 325.4,-143.51 7.56,-3.72 16.14,-5.76 26.12,-2.56 35.9,11.54 51.99,-1.31 61.99,-21.74 10.57,-21.59 6.48,-33.91 -23.13,-54.83 0,0 0,0 0,0z"/>
  </g>
 </g>
</svg>
